<?xml version="1.0" encoding="UTF-8" standalone="no"?> <svg xmlns="http://www.w3.org/2000/svg" id="Calque_1" data-name="Calque 1" viewBox="0 0 49.33 60.04" width="49.33000183105469" height="60.040000915527344"><defs><style> .cls-1, .cls-2 { fill: #fff; } .cls-3 { fill: none; stroke-miterlimit: 10; stroke-width: 2px; } .cls-3, .cls-2 { stroke: #fff; } .cls-4 { fill: #222221; } .cls-2 { stroke-linecap: round; stroke-linejoin: round; } </style></defs><path class="cls-1" d="M13.32,57.54c-4.14-.11-8.08-1.75-11.08-4.62l.37.88c-.03-12.87-.07-25.73-.1-38.6l-2.13.88c3.57,3.21,8.12,5.01,12.95,4.94,1.61-.02,1.61-2.52,0-2.5-4.15.06-8.1-1.43-11.18-4.2C1.35,13.61,0,14.08,0,15.2c.03,9.9.05,19.8.08,29.69,0,2.47.01,4.95.02,7.42,0,.96-.17,1.81.54,2.53.55.55,1.18,1.04,1.81,1.5,3.14,2.34,6.97,3.58,10.87,3.69,1.61.04,1.61-2.46,0-2.5h0Z"></path><path class="cls-1" d="M2.5,15.2c.02-.6.38-.96,1.07-1.21.62-.22,1.23-.52,1.83-.77l7.42-3.12L29.42,3.1c.3-.13,1.45-.39,1.63-.68-.03.05-.74-.07-.86-.11-.27-.1-.23-.35-.2-.13.16,1.16.16,2.21.05,3.39-.16,1.6,2.34,1.59,2.5,0s.46-6.51-2.51-5.4c-2.2.82-4.34,1.83-6.51,2.74-6.26,2.64-12.51,5.27-18.77,7.91-.66.28-1.32.59-1.99.84C1.09,12.25.06,13.36,0,15.2c-.05,1.61,2.45,1.61,2.5,0h0Z"></path><rect class="cls-2" x="8.05" y="8.71" width="31.84" height="1.59" transform="translate(-1.81 10.15) rotate(-23.06)"></rect><g><polygon class="cls-1" points="7.54 15.64 11 14.16 11.63 15.59 9.36 16.6 7.54 15.64"></polygon><path class="cls-1" d="M10.75,14.82l.23.52-1.6.71-.67-.36,2.04-.87M11.26,13.51l-4.88,2.08,2.95,1.57,2.95-1.31-1.03-2.34h0Z"></path></g><g><polygon class="cls-4" points="36.87 7.93 39.61 6.74 39.61 1.36 36.87 2.6 36.87 7.93"></polygon><polygon class="cls-1" points="39.61 1.36 36.87 2.6 36.87 7.93 39.61 6.74 39.61 1.36 39.61 1.36"></polygon></g><circle class="cls-3" cx="41.31" cy="46.85" r="7.03"></circle><g><path class="cls-1" d="M28.92,46.95c0-6.59,5.34-11.93,11.93-11.93.96,0,1.89.13,2.79.34V7.7c-10.11,4.33-20.22,8.66-30.33,12.99v36.9c5.4-2.3,10.81-4.61,16.21-6.91-.39-1.17-.6-2.43-.6-3.73Z"></path><path class="cls-1" d="M31.42,46.95c.09-6.02,5.65-10.49,11.56-9.18,1.57.35,3.16-.72,3.16-2.41V7.7c0-2.07-2.08-2.88-3.76-2.16l-30.33,12.99c-.78.33-1.24,1.36-1.24,2.16v36.9c0,2.08,2.08,2.87,3.76,2.16,5.4-2.3,10.81-4.61,16.21-6.91.97-.41,1.45-1.87,1.15-2.82-.32-1.02-.49-1.99-.51-3.06-.06-3.21-5.06-3.22-5,0,.03,1.49.25,2.97.69,4.39l1.15-2.82c-5.4,2.3-10.81,4.61-16.21,6.91l3.76,2.16V20.69l-1.24,2.16c10.11-4.33,20.22-8.66,30.33-12.99l-3.76-2.16v27.67l3.16-2.41c-4.59-1.02-9.19.01-12.81,3.03-3.24,2.7-5.01,6.79-5.07,10.97-.05,3.22,4.95,3.22,5,0Z"></path></g><g><path class="cls-1" d="M41.28,50.81s-6.35-4.2-2.7-7.02c0,0,1.79-.71,2.7.99,0,0,1-1.72,2.69-.98s2.19,3.66-2.69,7.01Z"></path><path class="cls-1" d="M41.6,50.27c-.19-.13-.38-.27-.56-.4-.11-.08.06.05-.03-.02-.05-.04-.1-.08-.15-.12-.1-.08-.2-.17-.3-.25-.24-.2-.46-.41-.69-.62-.48-.46-.88-.91-1.21-1.42-.09-.14-.17-.27-.24-.42-.08-.16-.14-.28-.17-.36-.05-.13-.09-.27-.12-.4-.02-.07-.03-.14-.04-.2.02.12,0-.12,0-.15,0-.09,0-.17,0-.26,0,0,.01-.1,0-.03-.01.08.02-.08.02-.09.02-.08.04-.15.06-.23.05-.14.01-.05.07-.16.19-.35.43-.6.78-.88l-.28.16c.08-.03.16-.05.24-.07.05-.01.3-.05.16-.03.12-.01.23-.02.35-.02.19,0,.42.05.61.15.29.15.47.39.63.67.23.41.84.4,1.08,0,.02-.04.05-.07.07-.11s.12-.15.01-.02c.04-.05.08-.1.13-.15.22-.24.42-.4.68-.5.34-.12.72-.09,1.03.05.1.05.2.11.3.18-.11-.08,0,0,.04.04.05.04.09.09.14.14.04.04.1.13.03.03.03.05.07.1.1.15s.06.1.08.16c.02.03.04.11,0-.02.01.04.03.07.04.11.03.12.06.23.08.35-.03-.16,0,.05,0,.08,0,.08,0,.16,0,.24,0,.06,0,.13-.02.19.01-.13-.02.08-.02.12-.04.17-.09.35-.15.51-.04.11-.1.24-.18.4-.1.2-.22.39-.35.58-.73,1.07-1.79,1.93-2.85,2.66-.28.19-.4.55-.22.86.16.27.58.42.86.22,1.82-1.26,4.01-3.07,4.19-5.45.13-1.7-1.34-3.16-3.07-2.86-.81.14-1.56.73-1.97,1.43h1.08c-.65-1.15-1.85-1.64-3.12-1.36-.89.2-1.61,1.21-1.8,2.06-.45,2.01,1.23,3.84,2.62,5.06.46.4.94.79,1.45,1.12.67.45,1.3-.64.63-1.08Z"></path></g></svg> 