<?xml version="1.0" encoding="UTF-8"?> <svg xmlns="http://www.w3.org/2000/svg" id="Calque_1" data-name="Calque 1" viewBox="0 0 59.93 44"><defs><style> .cls-1 { fill: #fff; } .cls-2 { stroke-linecap: round; } .cls-2, .cls-3 { stroke-linejoin: round; } .cls-2, .cls-3, .cls-4 { fill: none; stroke: #fff; stroke-width: 2px; } .cls-4 { stroke-miterlimit: 10; } </style></defs><path class="cls-4" d="M41.55,30.57h12.51c2.69,0,4.87-2.18,4.87-4.87v-13.43c0-2.69-2.18-4.87-4.87-4.87H5.87c-2.69,0-4.87,2.18-4.87,4.87v13.43c0,2.69,2.18,4.87,4.87,4.87h12.51"></path><polyline class="cls-2" points="17.99 22 17.99 43 41.99 43 41.99 22"></polyline><line class="cls-2" x1="11.99" y1="22" x2="47.99" y2="22"></line><path class="cls-1" d="M52.49,13c-.83,0-1.5.67-1.5,1.5s.67,1.5,1.5,1.5,1.5-.67,1.5-1.5-.67-1.5-1.5-1.5h0Z"></path><polyline class="cls-3" points="17.99 7 17.99 1 41.99 1 41.99 7"></polyline><line class="cls-2" x1="20.99" y1="37" x2="38.99" y2="37"></line><line class="cls-2" x1="20.99" y1="32.5" x2="38.99" y2="32.5"></line><line class="cls-2" x1="20.99" y1="28" x2="38.99" y2="28"></line></svg> 