<?xml version="1.0" encoding="UTF-8"?> <svg xmlns="http://www.w3.org/2000/svg" id="Calque_1" data-name="Calque 1" viewBox="0 0 59.9 58.29"><defs><style> .cls-1 { fill: #fff; } .cls-2 { stroke-linecap: round; stroke-linejoin: round; } .cls-2, .cls-3 { fill: none; stroke: #fff; stroke-width: 2px; } .cls-3 { stroke-miterlimit: 10; } </style></defs><path class="cls-2" d="M55.94,28.21l1.6-1.53-7.23-7.53-7.85.96c-2.17.26-3.98-1.62-3.63-3.78l1.28-7.81-7.23-7.53-7.08,6.8.35,3.91-3.9-.51L1,31.61l7.23,7.53,7.85-.96c2.17-.26,3.98,1.62,3.63,3.78l-1.28,7.81,7.23,7.53,15.94-15.3"></path><line class="cls-2" x1="28.7" y1="14.37" x2="30.4" y2="16.14"></line><line class="cls-2" x1="32.1" y1="17.91" x2="33.8" y2="19.68"></line><line class="cls-2" x1="35.5" y1="21.46" x2="37.2" y2="23.23"></line><line class="cls-2" x1="38.9" y1="25" x2="40.6" y2="26.77"></line><line class="cls-2" x1="42.3" y1="28.54" x2="44" y2="30.31"></line><circle class="cls-3" cx="51.69" cy="37.68" r="7.21"></circle><path class="cls-1" d="M55.21,36.14l-2.08-.04.04-1.88c.02-.78-.6-1.42-1.38-1.43s-1.42.6-1.43,1.38l-.04,1.88-2.08-.04c-.78-.02-1.42.6-1.43,1.38s.6,1.42,1.38,1.43l2.08.04-.05,2.28c-.02.78.6,1.42,1.38,1.43s1.42-.6,1.43-1.38l.05-2.28,2.08.04c.78.02,1.42-.6,1.43-1.38s-.6-1.42-1.38-1.43Z"></path></svg> 