<?xml version="1.0" encoding="UTF-8"?> <svg xmlns="http://www.w3.org/2000/svg" id="Calque_1" data-name="Calque 1" viewBox="0 0 60.03 53.85"><defs><style> .cls-1 { fill: #fff; } .cls-2 { fill: none; stroke: #fff; stroke-linejoin: round; stroke-width: 3px; } </style></defs><line class="cls-2" x1="41.07" y1="13.97" x2="18.95" y2="23.31"></line><line class="cls-2" x1="18.23" y1="30.37" x2="41.77" y2="39.52"></line><path class="cls-1" d="M49.68,35.15h0c3.73,0,7.04,2.52,8.04,6.12.6,2.15.32,4.4-.78,6.34-1.1,1.94-2.89,3.34-5.03,3.93-.73.2-1.48.31-2.23.31-3.73,0-7.04-2.52-8.04-6.12-.6-2.15-.32-4.4.78-6.34,1.1-1.94,2.89-3.34,5.03-3.93.73-.2,1.48-.31,2.24-.31M49.68,33.15c-.91,0-1.84.12-2.77.38-5.51,1.53-8.73,7.23-7.21,12.73,1.27,4.58,5.43,7.59,9.96,7.59.91,0,1.84-.12,2.77-.38,5.51-1.53,8.73-7.23,7.21-12.73-1.27-4.58-5.43-7.59-9.96-7.59h0Z"></path><path class="cls-1" d="M10.36,18.19h0c3.73,0,7.04,2.52,8.04,6.12.6,2.15.32,4.4-.78,6.34-1.1,1.94-2.89,3.34-5.03,3.93-.73.2-1.48.31-2.23.31-3.73,0-7.04-2.52-8.04-6.12-.6-2.15-.32-4.4.78-6.34,1.1-1.94,2.89-3.34,5.03-3.93.73-.2,1.48-.31,2.24-.31M10.35,16.19c-.91,0-1.84.12-2.77.38C2.08,18.09-1.15,23.79.38,29.3c1.27,4.58,5.43,7.59,9.96,7.59.91,0,1.84-.12,2.77-.38,5.51-1.53,8.73-7.23,7.21-12.73-1.27-4.58-5.43-7.59-9.96-7.59h0Z"></path><path class="cls-1" d="M49.66,2h0c3.73,0,7.04,2.52,8.04,6.12.6,2.15.32,4.4-.78,6.34-1.1,1.94-2.89,3.34-5.03,3.93-.73.2-1.48.31-2.23.31-3.73,0-7.04-2.52-8.04-6.12-.6-2.15-.32-4.4.78-6.34,1.1-1.94,2.89-3.34,5.03-3.93.73-.2,1.48-.31,2.24-.31M49.66,0c-.91,0-1.84.12-2.77.38-5.51,1.53-8.73,7.23-7.21,12.73,1.27,4.58,5.43,7.59,9.96,7.59.91,0,1.84-.12,2.77-.38,5.51-1.53,8.73-7.23,7.21-12.73C58.35,3,54.19,0,49.66,0h0Z"></path></svg> 